Coordinates
version=1
nRows=37
nColumns=38
inDegrees=no

Units are S.I. units (second, meters, Newtons, ...)
If the header above contains a line with 'inDegrees', this indicates whether rotational values are in degrees (yes) or radians (no).

endheader
time	pelvis_tilt	pelvis_list	pelvis_rotation	pelvis_tx	pelvis_ty	pelvis_tz	hip_flexion_r	hip_adduction_r	hip_rotation_r	knee_angle_r	ankle_angle_r	subtalar_angle_r	mtp_angle_r	hip_flexion_l	hip_adduction_l	hip_rotation_l	knee_angle_l	ankle_angle_l	subtalar_angle_l	mtp_angle_l	lumbar_extension	lumbar_bending	lumbar_rotation	arm_flex_r	arm_add_r	arm_rot_r	elbow_flex_r	pro_sup_r	wrist_flex_r	wrist_dev_r	arm_flex_l	arm_add_l	arm_rot_l	elbow_flex_l	pro_sup_l	wrist_flex_l	wrist_dev_l
1.57	-0.608237	1.47338	-0.86085	0.98125	-0.386946	0.929908	0.324642	0.0469533	-0.279901	0.192597	0.0418944	0	0	-0.320076	-0.075059	-0.184029	0.39848	0.257312	0	0	-0.129801	0.0319209	-0.258115	-0.27333	-0.0349251	-0.459216	0.53895	1.04731	0	0	-0.10497	-0.366753	0.470232	0.662756	0.69329	0	0
1.58	-0.652897	1.47298	-0.812205	0.980682	-0.398981	0.929418	0.319018	0.0538677	-0.271801	0.194174	0.0225594	0	0	-0.311561	-0.0878616	-0.185034	0.432913	0.249638	0	0	-0.121712	0.0368705	-0.261347	-0.28152	-0.0366853	-0.460022	0.54009	1.04488	0	0	-0.109228	-0.361702	0.467452	0.657387	0.700844	0	0
1.59	-0.707755	1.47081	-0.755008	0.979876	-0.410756	0.929297	0.315195	0.061589	-0.264958	0.198436	-0.00486577	0	0	-0.300092	-0.102847	-0.187459	0.472355	0.238082	0	0	-0.114777	0.0437602	-0.262554	-0.288225	-0.0388935	-0.459603	0.539421	1.04216	0	0	-0.111825	-0.356138	0.464646	0.650993	0.706958	0	0
1.6	-0.771551	1.46633	-0.691047	0.978845	-0.422248	0.92963	0.314773	0.0699601	-0.26137	0.211933	-0.025746	0	0	-0.285406	-0.120319	-0.191126	0.517243	0.221335	0	0	-0.109157	0.0532228	-0.26083	-0.293216	-0.0417021	-0.458992	0.536327	1.03901	0	0	-0.112449	-0.34984	0.462566	0.643746	0.711248	0	0
1.61	-0.832028	1.46032	-0.632461	0.977724	-0.43359	0.930335	0.317479	0.077732	-0.260434	0.235801	-0.0310026	0	0	-0.267609	-0.138568	-0.194683	0.567045	0.198075	0	0	-0.105155	0.0642017	-0.256352	-0.297313	-0.0447483	-0.459373	0.531917	1.03525	0	0	-0.111783	-0.343045	0.461422	0.636903	0.713546	0	0
1.62	-0.889766	1.45511	-0.577637	0.976674	-0.444795	0.931128	0.323606	0.0833263	-0.263314	0.266687	-0.0266207	0	0	-0.244329	-0.15577	-0.195927	0.622458	0.167459	0	0	-0.100249	0.0746488	-0.251236	-0.301356	-0.0479696	-0.459764	0.526937	1.02843	0	0	-0.111532	-0.336173	0.46114	0.629905	0.714961	0	0
1.63	-0.92516	1.45027	-0.544641	0.975794	-0.45591	0.932121	0.326089	0.0872537	-0.267116	0.294068	-0.0243291	0	0	-0.21988	-0.170075	-0.191059	0.679135	0.131467	0	0	-0.0971653	0.0833256	-0.247461	-0.30498	-0.051047	-0.459483	0.521818	1.02123	0	0	-0.11257	-0.331499	0.464334	0.626368	0.711397	0	0
1.64	-0.949046	1.44567	-0.522144	0.974976	-0.466864	0.933119	0.324136	0.0914214	-0.27105	0.313692	-0.0265764	0	0	-0.193068	-0.183179	-0.182308	0.738172	0.0917836	0	0	-0.0958196	0.0911928	-0.245519	-0.308272	-0.0534948	-0.46032	0.517886	1.01795	0	0	-0.115203	-0.328643	0.466334	0.628115	0.704902	0	0
1.65	-0.972575	1.4418	-0.499936	0.974036	-0.477526	0.933906	0.319535	0.0969179	-0.273509	0.325722	-0.0300374	0	0	-0.162729	-0.195445	-0.171776	0.799604	0.0502147	0	0	-0.0945843	0.0982116	-0.24416	-0.311735	-0.0549025	-0.463523	0.516991	1.01739	0	0	-0.1187	-0.327469	0.466597	0.634534	0.696869	0	0
1.66	-1.00127	1.43833	-0.472878	0.972934	-0.487829	0.934425	0.312962	0.104568	-0.274592	0.330733	-0.0325678	0	0	-0.128986	-0.207212	-0.160029	0.862383	0.00796685	0	0	-0.0923818	0.104906	-0.242538	-0.31626	-0.0555225	-0.467472	0.520545	1.01757	0	0	-0.121833	-0.327761	0.468572	0.642527	0.688506	0	0
1.67	-1.03229	1.4349	-0.443245	0.971785	-0.497781	0.934789	0.304625	0.113818	-0.274836	0.33039	-0.0340468	0	0	-0.0928869	-0.218307	-0.146554	0.925283	-0.0339909	0	0	-0.0899177	0.111455	-0.241068	-0.3209	-0.0556621	-0.47038	0.525534	1.01842	0	0	-0.12382	-0.329373	0.474182	0.649328	0.680759	0	0
1.68	-1.05777	1.43104	-0.418215	0.970777	-0.5074	0.935183	0.293832	0.123772	-0.274367	0.325371	-0.0356177	0	0	-0.0559013	-0.228316	-0.131162	0.987118	-0.0758063	0	0	-0.0887088	0.118054	-0.240301	-0.324987	-0.0555548	-0.47235	0.531351	1.01917	0	0	-0.124081	-0.331433	0.481691	0.653734	0.67645	0	0
1.69	-1.07087	1.42718	-0.405487	0.969876	-0.516703	0.935752	0.281259	0.133068	-0.273436	0.319445	-0.0377299	0	0	-0.0202475	-0.235718	-0.114711	1.04515	-0.118147	0	0	-0.0896968	0.123704	-0.239412	-0.327446	-0.0555781	-0.472838	0.535931	1.01878	0	0	-0.122676	-0.333478	0.488568	0.656672	0.673998	0	0
1.7	-1.07856	1.42289	-0.39829	0.969033	-0.525853	0.936504	0.267881	0.142553	-0.270966	0.31352	-0.0404146	0	0	0.0139894	-0.241443	-0.0975266	1.09824	-0.161719	0	0	-0.091623	0.129284	-0.238054	-0.329141	-0.0557819	-0.472613	0.539584	1.01731	0	0	-0.12006	-0.335387	0.496019	0.658299	0.672276	0	0
1.71	-1.07602	1.41867	-0.401758	0.968202	-0.534907	0.9375	0.253543	0.151217	-0.265986	0.309082	-0.0423418	0	0	0.0449968	-0.244958	-0.0808666	1.14563	-0.201213	0	0	-0.0950336	0.133845	-0.23574	-0.33036	-0.0559338	-0.471981	0.541753	1.01624	0	0	-0.116421	-0.337233	0.503127	0.658539	0.672048	0	0
1.72	-1.06609	1.41529	-0.413111	0.967372	-0.543842	0.938694	0.238682	0.158312	-0.258956	0.305811	-0.0422711	0	0	0.073689	-0.24615	-0.0654379	1.19004	-0.225794	0	0	-0.099252	0.136701	-0.232798	-0.330419	-0.0560226	-0.47146	0.540841	1.01663	0	0	-0.112619	-0.339087	0.508859	0.658412	0.673197	0	0
1.73	-1.05014	1.41289	-0.430857	0.966587	-0.552669	0.94006	0.222599	0.16386	-0.250561	0.30163	-0.0410617	0	0	0.100844	-0.245344	-0.0517234	1.2331	-0.228916	0	0	-0.104054	0.137852	-0.229801	-0.329379	-0.0558473	-0.471615	0.538008	1.0169	0	0	-0.109555	-0.340964	0.512969	0.659093	0.67461	0	0
1.74	-1.02976	1.4123	-0.454819	0.96571	-0.561361	0.941562	0.206495	0.167187	-0.240394	0.297602	-0.0387397	0	0	0.126553	-0.242297	-0.0418179	1.27298	-0.215381	0	0	-0.109183	0.136524	-0.225779	-0.327225	-0.0555329	-0.471746	0.533314	1.01616	0	0	-0.107995	-0.342462	0.512206	0.66112	0.675745	0	0
1.75	-1.00649	1.41297	-0.483047	0.964713	-0.569906	0.943179	0.190206	0.169089	-0.229389	0.292864	-0.0363284	0	0	0.151	-0.237957	-0.0354224	1.30813	-0.194336	0	0	-0.114407	0.133325	-0.220694	-0.324427	-0.0550012	-0.471984	0.526782	1.016	0	0	-0.107194	-0.344091	0.508876	0.664096	0.677604	0	0
1.76	-0.981438	1.41446	-0.514003	0.96361	-0.578307	0.944877	0.173619	0.170041	-0.218414	0.28691	-0.0342891	0	0	0.174567	-0.232764	-0.0312342	1.3382	-0.171895	0	0	-0.119413	0.12886	-0.214735	-0.321334	-0.0540855	-0.473214	0.519383	1.01612	0	0	-0.106614	-0.345996	0.505263	0.667341	0.678524	0	0
1.77	-0.954725	1.41663	-0.547804	0.962392	-0.586551	0.946627	0.156716	0.17022	-0.207654	0.279833	-0.0321102	0	0	0.19726	-0.226934	-0.0292987	1.36286	-0.152495	0	0	-0.124544	0.123438	-0.207861	-0.317879	-0.0526599	-0.476402	0.511774	1.0176	0	0	-0.106483	-0.347911	0.500184	0.671047	0.678741	0	0
1.78	-0.927574	1.41954	-0.583522	0.961078	-0.594606	0.948343	0.139892	0.169652	-0.196542	0.271826	-0.0295445	0	0	0.219421	-0.220468	-0.0293818	1.38222	-0.137099	0	0	-0.1296	0.117214	-0.199936	-0.314962	-0.0513943	-0.478219	0.505579	1.01938	0	0	-0.106461	-0.349975	0.494902	0.67473	0.679192	0	0
1.79	-0.897722	1.42249	-0.622736	0.95972	-0.602564	0.950051	0.122468	0.168461	-0.186105	0.262787	-0.0270232	0	0	0.240404	-0.213951	-0.0309213	1.39637	-0.125182	0	0	-0.134858	0.110569	-0.191209	-0.312415	-0.0504301	-0.479016	0.499442	1.02249	0	0	-0.106207	-0.352061	0.489791	0.677967	0.679957	0	0
1.8	-0.865853	1.4252	-0.664198	0.958397	-0.610457	0.951683	0.104713	0.166662	-0.177323	0.25336	-0.0246667	0	0	0.260357	-0.207569	-0.0331605	1.40568	-0.11697	0	0	-0.140137	0.104097	-0.181736	-0.311396	-0.0492255	-0.480484	0.495989	1.02655	0	0	-0.105121	-0.354054	0.486355	0.680258	0.680553	0	0
1.81	-0.824812	1.42926	-0.718522	0.955583	-0.61838	0.953231	0.0865216	0.162463	-0.169628	0.242624	-0.0213081	0	0	0.279682	-0.214016	-0.0293669	1.40642	-0.101913	0	0	-0.145642	0.0937994	-0.170214	-0.31082	-0.0461202	-0.483111	0.495557	1.0298	0	0	-0.105126	-0.357255	0.482164	0.681616	0.681253	0	0
1.82	-0.793163	1.43018	-0.758482	0.955731	-0.626093	0.954758	0.068267	0.161117	-0.158624	0.233272	-0.0203119	0	0	0.295265	-0.19497	-0.0411513	1.40913	-0.10586	0	0	-0.151704	0.0908563	-0.16078	-0.310905	-0.0457815	-0.486216	0.495378	1.03294	0	0	-0.102856	-0.357441	0.479267	0.683724	0.682779	0	0
1.83	-0.745779	1.43425	-0.819453	0.95278	-0.633759	0.956081	0.0517344	0.15575	-0.149325	0.224381	-0.0168569	0	0	0.312603	-0.202871	-0.0386204	1.40077	-0.0900128	0	0	-0.157394	0.0797035	-0.149607	-0.309682	-0.0428283	-0.486818	0.494823	1.03475	0	0	-0.102671	-0.361015	0.474939	0.684555	0.68464	0	0
1.84	-0.703533	1.43652	-0.873184	0.951518	-0.64115	0.957335	0.035974	0.151566	-0.137585	0.217299	-0.0149793	0	0	0.327561	-0.197534	-0.044687	1.3918	-0.0833979	0	0	-0.163608	0.0724822	-0.139351	-0.308965	-0.0413961	-0.486399	0.496234	1.03557	0	0	-0.101394	-0.362783	0.470651	0.6858	0.687466	0	0
1.85	-0.659244	1.43858	-0.928847	0.950186	-0.648495	0.958469	0.0210315	0.146819	-0.1253	0.211355	-0.0132183	0	0	0.341212	-0.192123	-0.0516195	1.37838	-0.0755145	0	0	-0.169834	0.0650881	-0.129152	-0.308553	-0.039849	-0.485359	0.499676	1.03549	0	0	-0.0998253	-0.364512	0.4671	0.686442	0.690618	0	0
1.86	-0.616087	1.44041	-0.982554	0.948961	-0.655822	0.959464	0.00687755	0.141935	-0.113511	0.206016	-0.0114263	0	0	0.354011	-0.186734	-0.0580659	1.36092	-0.0660758	0	0	-0.175873	0.058094	-0.120263	-0.307749	-0.0385183	-0.483635	0.503574	1.03552	0	0	-0.0985422	-0.366141	0.463453	0.686892	0.693942	0	0
1.87	-0.574191	1.44209	-1.03439	0.94789	-0.663054	0.960331	-0.00627451	0.136876	-0.10222	0.201498	-0.00965853	0	0	0.365774	-0.181364	-0.0641771	1.33965	-0.0552599	0	0	-0.181695	0.0513819	-0.112309	-0.30615	-0.0375259	-0.480941	0.506729	1.03571	0	0	-0.0972406	-0.367563	0.459944	0.686908	0.697263	0	0
1.88	-0.545246	1.44224	-1.07197	0.948306	-0.670186	0.961162	-0.0190797	0.132924	-0.0912926	0.197803	-0.00821723	0	0	0.37507	-0.16183	-0.0751619	1.31709	-0.0538494	0	0	-0.187624	0.0489553	-0.105048	-0.303973	-0.038662	-0.477617	0.509866	1.0357	0	0	-0.0950543	-0.366954	0.457535	0.686315	0.700804	0	0
1.89	-0.502336	1.44285	-1.124	0.947373	-0.677406	0.961916	-0.0320398	0.127542	-0.0812571	0.194482	-0.00541087	0	0	0.382965	-0.156776	-0.0805977	1.28706	-0.0437721	0	0	-0.193429	0.0425118	-0.0984735	-0.301782	-0.0381517	-0.473136	0.513749	1.03421	0	0	-0.0934362	-0.368062	0.455505	0.684441	0.704322	0	0
1.9	-0.461942	1.443	-1.17305	0.946502	-0.684649	0.962566	-0.0449327	0.122413	-0.0717513	0.191663	-0.00153148	0	0	0.388908	-0.152392	-0.086503	1.25301	-0.0346655	0	0	-0.19951	0.0365205	-0.092734	-0.298727	-0.0379198	-0.468256	0.516391	1.03075	0	0	-0.0920704	-0.369171	0.453813	0.682515	0.706878	0	0
1.91	-0.42571	1.44325	-1.2169	0.945737	-0.691844	0.963036	-0.0569445	0.117577	-0.0634422	0.189191	0.00339161	0	0	0.393996	-0.148404	-0.0922046	1.21552	-0.0269461	0	0	-0.205283	0.0311054	-0.0878293	-0.295136	-0.0379377	-0.463242	0.517849	1.02813	0	0	-0.0905622	-0.37005	0.452701	0.680272	0.707394	0	0
1.92	-0.393821	1.44327	-1.25552	0.945049	-0.699048	0.963403	-0.068326	0.113048	-0.0560295	0.187346	0.00865886	0	0	0.39736	-0.1452	-0.0984367	1.17444	-0.0198832	0	0	-0.210352	0.0263865	-0.0838112	-0.291761	-0.0378061	-0.459398	0.519853	1.02857	0	0	-0.0891895	-0.370623	0.452303	0.677433	0.705414	0	0
1.93	-0.366635	1.44392	-1.28857	0.944412	-0.706297	0.963629	-0.0783483	0.108707	-0.0493799	0.186018	0.0139397	0	0	0.399785	-0.142375	-0.105023	1.12956	-0.0141263	0	0	-0.214078	0.0220425	-0.0806556	-0.287942	-0.0375552	-0.455776	0.521219	1.02846	0	0	-0.087582	-0.371937	0.452798	0.674618	0.705845	0	0
